HIERARCHY
ROOT Hips
{
	OFFSET -0.001795 -0.223333 0.028219
	CHANNELS 6 Xposition Yposition Zposition Zrotation Yrotation Xrotation 
	JOINT LeftUpLeg
	{
		OFFSET 0.069520 -0.091406 -0.006815
		CHANNELS 3 Zrotation Yrotation Xrotation
		JOINT LeftLeg
		{
			OFFSET 0.034277 -0.375199 -0.004496
			CHANNELS 3 Zrotation Yrotation Xrotation
			JOINT LeftFoot
			{
				OFFSET -0.013596 -0.397961 -0.043693
				CHANNELS 3 Zrotation Yrotation Xrotation
				JOINT LeftToe
				{
					OFFSET 0.026358 -0.055791 0.119288
					CHANNELS 3 Zrotation Yrotation Xrotation
					End Site
					{
						OFFSET 0.000000 0.000000 0.000000
					}
				}
			}
		}
	}
	JOINT RightUpLeg
	{
		OFFSET -0.067670 -0.090522 -0.004320
		CHANNELS 3 Zrotation Yrotation Xrotation
		JOINT RightLeg
		{
			OFFSET -0.038290 -0.382569 -0.008850
			CHANNELS 3 Zrotation Yrotation Xrotation
			JOINT RightFoot
			{
				OFFSET 0.015774 -0.398415 -0.042312
				CHANNELS 3 Zrotation Yrotation Xrotation
				JOINT RightToe
				{
					OFFSET -0.025372 -0.048144 0.123348
					CHANNELS 3 Zrotation Yrotation Xrotation
					End Site
					{
						OFFSET 0.000000 0.000000 0.000000
					}
				}
			}
		}
	}
	JOINT Spine
	{
		OFFSET -0.002533 0.108963 -0.026696
		CHANNELS 3 Zrotation Yrotation Xrotation
		JOINT Spine1
		{
			OFFSET 0.005487 0.135180 0.001092
			CHANNELS 3 Zrotation Yrotation Xrotation
			JOINT Spine2
			{
				OFFSET 0.001457 0.052922 0.025425
				CHANNELS 3 Zrotation Yrotation Xrotation
				JOINT Neck
				{
					OFFSET -0.002778 0.213870 -0.042857
					CHANNELS 3 Zrotation Yrotation Xrotation
					JOINT Head
					{
						OFFSET 0.005152 0.064970 0.051349
						CHANNELS 3 Zrotation Yrotation Xrotation
						End Site
						{
							OFFSET 0.000000 0.000000 0.000000
						}
					}
				}
				JOINT LeftShoulder
				{
					OFFSET 0.078845 0.121749 -0.034090
					CHANNELS 3 Zrotation Yrotation Xrotation
					JOINT LeftArm
					{
						OFFSET 0.090977 0.030469 -0.008868
						CHANNELS 3 Zrotation Yrotation Xrotation
						JOINT LeftForeArm
						{
							OFFSET 0.259612 -0.012772 -0.027456
							CHANNELS 3 Zrotation Yrotation Xrotation
							JOINT LeftHand
							{
								OFFSET 0.249234 0.008986 -0.001171
								CHANNELS 3 Zrotation Yrotation Xrotation
								End Site
								{
									OFFSET 0.000000 0.000000 0.000000
								}
							}
						}
					}
				}
				JOINT RightShoulder
				{
					OFFSET -0.081759 0.118833 -0.038615
					CHANNELS 3 Zrotation Yrotation Xrotation
					JOINT RightArm
					{
						OFFSET -0.096012 0.032551 -0.009143
						CHANNELS 3 Zrotation Yrotation Xrotation
						JOINT RightForeArm
						{
							OFFSET -0.253742 -0.013329 -0.021401
							CHANNELS 3 Zrotation Yrotation Xrotation
							JOINT RightHand
							{
								OFFSET -0.255298 0.007772 -0.005559
								CHANNELS 3 Zrotation Yrotation Xrotation
								End Site
								{
									OFFSET 0.000000 0.000000 0.000000
								}
							}
						}
					}
				}
			}
		}
	}
}
MOTION
Frames: 5
Frame Time: 0.050000
0.126175 0.874950 -0.054453 -2.108564 -0.604286 -8.859022 5.716193 -0.749140 -19.157728 -11.827905 4.985178 47.564532 10.144575 20.438318 -4.306256 0.000000 0.000000 0.000000 -2.551724 1.864049 -23.264517 10.276858 -3.525989 45.693005 -12.336304 -27.604434 7.845837 0.000000 0.000000 0.000000 -2.861127 -0.527511 32.142891 4.865284 -1.354909 -14.519360 -0.147847 4.649659 28.368577 4.476436 -0.553024 -24.164685 0.000000 0.000000 0.000000 -33.836498 -15.764425 6.877001 -33.734109 -11.444457 -2.363548 -6.548832 -44.311677 4.305195 0.000000 0.000000 0.000000 14.688777 13.145243 6.497654 19.149489 3.174873 -2.691046 -59.027073 24.838790 -11.535131 0.000000 0.000000 0.000000 
0.126828 0.886317 -0.054510 -2.445135 -0.121285 -7.684236 5.260362 -0.847008 -18.901099 -11.033211 4.185498 44.671965 9.499477 19.141004 -2.505912 0.000000 0.000000 0.000000 -2.043388 1.906904 -22.748854 9.741058 -3.195925 42.612530 -12.627364 -27.853550 9.628062 0.000000 0.000000 0.000000 -3.209004 -0.465908 30.871513 4.738066 -1.209865 -15.560972 -1.058533 3.336037 28.664900 5.368744 -1.139203 -25.595324 0.000000 0.000000 0.000000 -33.290450 -15.859934 7.430802 -33.439604 -13.929243 -1.888821 -5.026366 -43.401659 3.663590 0.000000 0.000000 0.000000 12.766649 12.241090 5.680088 18.068823 3.511720 -2.477438 -59.535284 21.667904 -10.120295 0.000000 0.000000 0.000000 
0.127270 0.900961 -0.054954 -2.789573 0.540880 -6.652291 5.018010 -0.857581 -17.678894 -10.238112 3.318103 39.959269 8.751648 17.756473 -0.435979 0.000000 0.000000 0.000000 -1.457014 1.892638 -21.556627 9.149475 -2.832425 38.631069 -12.819628 -27.724323 12.467572 0.000000 0.000000 0.000000 -3.574270 -0.409173 29.424898 4.506550 -1.021646 -16.748904 -1.596563 2.383316 29.256088 6.295732 -1.670753 -26.752560 0.000000 0.000000 0.000000 -32.073032 -16.442298 8.067617 -33.504479 -16.189323 -1.446819 -2.191250 -44.148700 2.648477 0.000000 0.000000 0.000000 10.320885 12.129888 5.296603 18.623536 5.110785 -2.360791 -58.250106 18.327637 -8.051076 0.000000 0.000000 0.000000 
0.127884 0.915235 -0.055541 -2.932202 0.909964 -5.340081 4.488803 -0.900055 -16.609963 -9.325574 2.624846 35.860374 7.995666 16.443381 1.090481 0.000000 0.000000 0.000000 -0.861081 1.915134 -20.713856 8.351162 -2.321533 34.389971 -12.438491 -26.882915 14.001877 0.000000 0.000000 0.000000 -3.338830 -0.467239 28.287141 3.929111 -0.770847 -17.396544 -1.615835 1.922723 28.857760 6.150298 -1.746248 -25.662561 0.000000 0.000000 0.000000 -30.712750 -16.415818 8.076167 -33.067109 -18.698673 -0.858362 -0.839283 -47.090183 2.302693 0.000000 0.000000 0.000000 8.911237 12.644114 5.344575 18.313662 6.964259 -2.099395 -57.167408 14.353603 -5.816341 0.000000 0.000000 0.000000 
0.129547 0.925817 -0.056442 -3.324055 0.536023 -4.142876 4.511707 -0.873695 -16.238691 -8.629978 2.261211 32.810358 7.133869 15.062003 3.030361 0.000000 0.000000 0.000000 -0.507666 1.927116 -20.027697 8.149111 -2.044688 31.216079 -12.343018 -26.579293 15.547865 0.000000 0.000000 0.000000 -2.843991 -0.531411 27.079692 3.800077 -0.676362 -18.300884 -1.106209 2.357826 29.366760 6.441031 -1.915016 -25.338597 0.000000 0.000000 0.000000 -28.853164 -15.528085 7.325966 -32.846441 -20.194657 -0.560595 -1.711159 -53.893876 3.175593 0.000000 0.000000 0.000000 7.181797 12.205579 5.019730 18.438169 10.018457 -1.830320 -55.942549 12.005529 -4.336916 0.000000 0.000000 0.000000 
